<svg viewBox="0 0 1200 1200" xmlns="http://www.w3.org/2000/svg">
  <g opacity="1">
    <path d="M599.999 599.999L599.999 845.272C534.932 845.358 472.517 819.499 426.575 773.423L599.999 599.999Z" fill="#999999" fill-rule="nonzero" opacity="1" stroke="none" />
    <path d="M773.423 773.423C727.482 819.499 665.066 845.358 599.999 845.272L599.999 599.999L773.423 773.423Z" fill="#999999" fill-rule="nonzero" opacity="1" stroke="none" />
    <path d="M845.272 599.999C845.358 665.066 819.499 727.482 773.423 773.423L599.999 599.999L845.272 599.999Z" fill="#999999" fill-rule="nonzero" opacity="1" stroke="none" />
    <path d="M773.423 426.575L599.999 599.999L599.999 354.726C665.066 354.641 727.482 380.499 773.423 426.575Z" fill="#999999" fill-rule="nonzero" opacity="1" stroke="none" />
    <path d="M599.999 354.726L599.999 599.999L426.575 426.575C472.517 380.499 534.932 354.641 599.999 354.726Z" fill="#999999" fill-rule="nonzero" opacity="1" stroke="none" />
    <path d="M599.999 599.999L426.575 773.423C380.499 727.482 354.641 665.066 354.726 599.999L599.999 599.999Z" fill="#999999" fill-rule="nonzero" opacity="1" stroke="none" />
    <path d="M1008.79 599.999L845.272 599.999C845.358 534.932 819.499 472.517 773.423 426.575L889.062 310.937C965.844 387.522 1008.93 491.553 1008.79 599.999Z" fill="#b3b3b3" fill-rule="nonzero" opacity="1" stroke="none" />
    <path d="M889.062 310.937L773.423 426.575C727.482 380.499 665.066 354.641 599.999 354.726L599.999 191.211C708.446 191.067 812.476 234.155 889.062 310.937Z" fill="#808080" fill-rule="nonzero" opacity="1" stroke="none" />
    <path d="M599.999 191.211L599.999 354.726C534.932 354.641 472.517 380.499 426.575 426.575L310.937 310.937C387.522 234.155 491.553 191.067 599.999 191.211Z" fill="#808080" fill-rule="nonzero" opacity="1" stroke="none" />
    <path d="M426.575 426.575C380.499 472.517 354.641 534.932 354.726 599.999L191.211 599.999C191.067 491.553 234.155 387.522 310.937 310.937L426.575 426.575Z" fill="#b3b3b3" fill-rule="nonzero" opacity="1" stroke="none" />
    <path d="M310.937 889.062L195.316 1004.68C87.8266 897.461 27.5039 751.823 27.6964 599.999L191.211 599.999C191.067 708.446 234.155 812.476 310.937 889.062Z" fill="#4d4d4d" fill-rule="nonzero" opacity="1" stroke="none" />
    <path d="M599.999 1008.79L599.999 1172.3C448.176 1172.5 302.537 1112.17 195.316 1004.68L310.937 889.062C387.522 965.842 491.553 1008.93 599.999 1008.79Z" fill="#4d4d4d" fill-rule="nonzero" opacity="1" stroke="none" />
    <path d="M1004.68 1004.68C897.461 1112.17 751.823 1172.5 599.999 1172.3L599.999 1008.79C708.446 1008.93 812.476 965.844 889.062 889.062L1004.68 1004.68Z" fill="#4d4d4d" fill-rule="nonzero" opacity="1" stroke="none" />
    <path d="M1172.3 599.999C1172.5 751.823 1112.17 897.461 1004.68 1004.68L889.062 889.062C965.844 812.476 1008.93 708.446 1008.79 599.999L1172.3 599.999Z" fill="#4d4d4d" fill-rule="nonzero" opacity="1" stroke="none" />
    <path d="M1004.68 195.316L889.062 310.937C812.476 234.155 708.446 191.067 599.999 191.211L599.999 27.6964C751.823 27.5039 897.461 87.8266 1004.68 195.316Z" fill="#4d4d4d" fill-rule="nonzero" opacity="1" stroke="none" />
    <path d="M599.999 27.6964L599.999 191.211C491.553 191.067 387.522 234.155 310.937 310.937L195.316 195.316C302.537 87.8266 448.176 27.5039 599.999 27.6964Z" fill="#4d4d4d" fill-rule="nonzero" opacity="1" stroke="none" />
  </g>
</svg>
  